---
title: 李明洋.2004-夜半限時批【音网】【WAV+CUE】
date: 2023-08-25 06:34:03
categories: WAV车载音乐、镜像
tags: 华语中文
---
# 李明洋.2004-夜半限時批【音网】【WAV+CUE】

REM DISCID 8709D90A
REM COMMENT ExactAudioCopy v1.3
PERFORMER "李明洋"
TITLE "夜半限时批（"
FILE "李明洋 - 夜半限时批.wav" WAVE
TRACK 01 AUDIO
TITLE "夜半限时批"
PERFORMER "李明洋"
INDEX 01 00:00:00
TRACK 02 AUDIO
TITLE "行行行"
PERFORMER "李明洋"
INDEX 00 04:19:52
INDEX 01 04:21:52
TRACK 03 AUDIO
TITLE "风中的歌"
PERFORMER "李明洋"
INDEX 00 07:54:32
INDEX 01 07:56:32
TRACK 04 AUDIO
TITLE "远远看著你"
PERFORMER "李明洋"
INDEX 00 11:54:44
INDEX 01 11:56:44
TRACK 05 AUDIO
TITLE "伤心 yesterday"
PERFORMER "李明洋"
INDEX 00 15:49:58
INDEX 01 15:51:58
TRACK 06 AUDIO
TITLE "天哪拢袂光"
PERFORMER "李明洋"
INDEX 00 20:09:47
INDEX 01 20:11:47
TRACK 07 AUDIO
TITLE "牵你的手"
PERFORMER "李明洋"
INDEX 00 24:32:15
INDEX 01 24:34:15
TRACK 08 AUDIO
TITLE "想欲飞入去的目的"
PERFORMER "瑅"
INDEX 00 28:40:45
INDEX 01 28:42:45
TRACK 09 AUDIO
TITLE "家后"
PERFORMER "李明洋"
INDEX 00 32:30:19
INDEX 01 32:32:19
TRACK 10 AUDIO
TITLE "是我不对"
PERFORMER "李明洋"
INDEX 00 36:53:59
INDEX 01 36:55:59
李明洋.2004 - 夜半限時批【音网】【WAV+CUE】.rar: https://url27.ctfile.com/f/9388027-921261486-588e9b?p=559675
(访问密码: 559675)
李明洋: https://url27.ctfile.com/d/9388027-57534849-d1e1d8?p=559675
(访问密码: 559675)
原文：[链接](https://blog.sina.com.cn/s/blog_1647c7e760103138l.html)